<?xml version="1.0" encoding="UTF-8" standalone="no"?>
<svg
   xmlns:dc="http://purl.org/dc/elements/1.1/"
   xmlns:cc="http://creativecommons.org/ns#"
   xmlns:rdf="http://www.w3.org/1999/02/22-rdf-syntax-ns#"
   xmlns:svg="http://www.w3.org/2000/svg"
   xmlns="http://www.w3.org/2000/svg"
   id="svg1783"
   version="1.1"
   viewBox="0 0 42.607151 41.55492"
   height="41.55492mm"
   width="42.607151mm">
  <defs
     id="defs1777" />
  <metadata
     id="metadata1780">
    <rdf:RDF>
      <cc:Work
         rdf:about="">
        <dc:format>image/svg+xml</dc:format>
        <dc:type
           rdf:resource="http://purl.org/dc/dcmitype/StillImage" />
        <dc:title></dc:title>
      </cc:Work>
    </rdf:RDF>
  </metadata>
  <g
     transform="translate(-87.553599,-106.22254)"
     id="layer1">
    <path
       id="path1237"
       style="fill:#1b1817;fill-opacity:1;fill-rule:evenodd;stroke:none;stroke-width:0.352777"
       d="m 108.85714,106.22254 c -11.764077,0 -21.303541,9.53734 -21.303541,21.30354 0,9.41211 6.104114,17.39759 14.568661,20.21452 1.06469,0.1972 1.45556,-0.46214 1.45556,-1.02482 0,-0.50765 -0.0198,-2.18616 -0.0289,-3.96628 -5.926661,1.2887 -7.177258,-2.51354 -7.177258,-2.51354 -0.96908,-2.46204 -2.365375,-3.11715 -2.365375,-3.11715 -1.932869,-1.32221 0.145698,-1.29504 0.145698,-1.29504 2.139244,0.15028 3.265663,2.19569 3.265663,2.19569 1.900061,3.25649 4.983692,2.31492 6.199362,1.77059 0.19156,-1.37654 0.7433,-2.31669 1.35255,-2.84868 -4.73181,-0.53834 -9.705973,-2.36538 -9.705973,-10.5283 0,-2.32551 0.832203,-4.22628 2.194984,-5.71818 -0.221192,-0.53657 -0.950384,-2.70333 0.206727,-5.63774 0,0 1.788936,-0.5722 5.859642,2.18405 1.69933,-0.47202 3.52178,-0.70873 5.33223,-0.7172 1.81046,0.008 3.63432,0.24518 5.33683,0.7172 4.06611,-2.75625 5.85258,-2.18405 5.85258,-2.18405 1.15958,2.93441 0.43039,5.10117 0.2092,5.63774 1.36595,1.4919 2.19216,3.39267 2.19216,5.71818 0,8.18268 -4.98369,9.98396 -9.7275,10.51136 0.76412,0.66111 1.44498,1.95757 1.44498,3.94512 0,2.85044 -0.0243,5.14456 -0.0243,5.84623 0,0.56727 0.38312,1.23119 1.46297,1.02235 8.46031,-2.82011 14.55666,-10.80276 14.55666,-20.21205 0,-11.7662 -9.53804,-21.30354 -21.30354,-21.30354" />
  </g>
</svg>
