<svg width="164" height="129" viewBox="0 0 164 129" fill="none" xmlns="http://www.w3.org/2000/svg">
<path d="M50.8438 16.7656H53.7188C53.6458 18.3281 53.3281 19.6771 52.7656 20.8125C52.2135 21.9375 51.4062 22.8021 50.3438 23.4062C49.2917 24.0104 47.974 24.3125 46.3906 24.3125C45.2552 24.3125 44.2292 24.0885 43.3125 23.6406C42.3958 23.1927 41.6094 22.5521 40.9531 21.7188C40.3073 20.875 39.8125 19.8646 39.4688 18.6875C39.125 17.5104 38.9531 16.1875 38.9531 14.7188V10.5156C38.9531 9.05729 39.125 7.73958 39.4688 6.5625C39.8229 5.38542 40.3281 4.38021 40.9844 3.54688C41.651 2.70312 42.4583 2.05729 43.4062 1.60938C44.3646 1.16146 45.4479 0.9375 46.6562 0.9375C48.1354 0.9375 49.3854 1.23438 50.4062 1.82812C51.4375 2.41146 52.2292 3.27083 52.7812 4.40625C53.3438 5.53125 53.6562 6.91146 53.7188 8.54688H50.8438C50.7708 7.34896 50.5833 6.375 50.2812 5.625C49.9792 4.86458 49.5312 4.30729 48.9375 3.95312C48.3542 3.58854 47.5938 3.40625 46.6562 3.40625C45.8229 3.40625 45.099 3.57292 44.4844 3.90625C43.8802 4.23958 43.3802 4.71875 42.9844 5.34375C42.599 5.95833 42.3073 6.70312 42.1094 7.57812C41.9219 8.44271 41.8281 9.41146 41.8281 10.4844V14.7188C41.8281 15.7188 41.9062 16.651 42.0625 17.5156C42.2292 18.3802 42.4896 19.1406 42.8438 19.7969C43.2083 20.4427 43.6823 20.9479 44.2656 21.3125C44.849 21.6771 45.5573 21.8594 46.3906 21.8594C47.4427 21.8594 48.276 21.6875 48.8906 21.3438C49.5052 21 49.9583 20.4531 50.25 19.7031C50.5521 18.9531 50.75 17.974 50.8438 16.7656ZM60 0V24H57.2344V0H60ZM59.3281 14.9062L58.2031 14.8594C58.1927 13.7031 58.3229 12.6354 58.5938 11.6562C58.875 10.6667 59.2708 9.80729 59.7812 9.07812C60.3021 8.34896 60.9219 7.78646 61.6406 7.39062C62.3594 6.98438 63.1562 6.78125 64.0312 6.78125C64.7188 6.78125 65.3438 6.89583 65.9062 7.125C66.4688 7.34375 66.9479 7.69792 67.3438 8.1875C67.7396 8.67708 68.0417 9.3125 68.25 10.0938C68.4688 10.8646 68.5781 11.8073 68.5781 12.9219V24H65.8125V12.8906C65.8125 12.0052 65.7135 11.2969 65.5156 10.7656C65.3281 10.224 65.0365 9.83333 64.6406 9.59375C64.2552 9.34375 63.7656 9.21875 63.1719 9.21875C62.6302 9.21875 62.125 9.36979 61.6562 9.67188C61.1875 9.97396 60.776 10.3906 60.4219 10.9219C60.0781 11.4531 59.8073 12.0625 59.6094 12.75C59.4219 13.4271 59.3281 14.1458 59.3281 14.9062ZM78.75 24.3125C77.7396 24.3125 76.8281 24.1615 76.0156 23.8594C75.2031 23.5573 74.5104 23.099 73.9375 22.4844C73.3646 21.8594 72.9271 21.0729 72.625 20.125C72.3229 19.1771 72.1719 18.0573 72.1719 16.7656V14.8594C72.1719 13.3698 72.3438 12.1094 72.6875 11.0781C73.0417 10.0469 73.5156 9.21875 74.1094 8.59375C74.7031 7.95833 75.375 7.5 76.125 7.21875C76.875 6.92708 77.6458 6.78125 78.4375 6.78125C79.5 6.78125 80.4062 6.95312 81.1562 7.29688C81.9062 7.64062 82.5156 8.15104 82.9844 8.82812C83.4531 9.50521 83.7969 10.3385 84.0156 11.3281C84.2448 12.3177 84.3594 13.4583 84.3594 14.75V16.3594H73.7969V14H81.5938V13.6094C81.5521 12.7344 81.4323 11.9635 81.2344 11.2969C81.0469 10.6302 80.7344 10.1094 80.2969 9.73438C79.8594 9.34896 79.2396 9.15625 78.4375 9.15625C77.9271 9.15625 77.4531 9.24479 77.0156 9.42188C76.5885 9.58854 76.2188 9.88542 75.9062 10.3125C75.6042 10.7292 75.3646 11.3073 75.1875 12.0469C75.0208 12.7865 74.9375 13.724 74.9375 14.8594V16.7656C74.9375 17.6719 75.0208 18.4531 75.1875 19.1094C75.3646 19.7552 75.6198 20.2917 75.9531 20.7188C76.2969 21.1354 76.7135 21.4479 77.2031 21.6562C77.7031 21.8542 78.2708 21.9531 78.9062 21.9531C79.8333 21.9531 80.599 21.776 81.2031 21.4219C81.8073 21.0573 82.3333 20.5938 82.7812 20.0312L84.2344 21.7656C83.9323 22.1927 83.5365 22.6042 83.0469 23C82.5677 23.3854 81.974 23.7031 81.2656 23.9531C80.5677 24.1927 79.7292 24.3125 78.75 24.3125ZM93.5625 21.9531C94.1146 21.9531 94.6146 21.8438 95.0625 21.625C95.5208 21.3958 95.8958 21.0417 96.1875 20.5625C96.4792 20.0729 96.6458 19.4375 96.6875 18.6562H99.2812C99.2396 19.7812 98.9531 20.7708 98.4219 21.625C97.901 22.4688 97.2135 23.1302 96.3594 23.6094C95.5156 24.0781 94.5833 24.3125 93.5625 24.3125C92.4688 24.3125 91.5156 24.1354 90.7031 23.7812C89.901 23.4271 89.2344 22.9167 88.7031 22.25C88.1823 21.5729 87.7917 20.7552 87.5312 19.7969C87.2708 18.8281 87.1406 17.7292 87.1406 16.5V14.5938C87.1406 13.3646 87.2708 12.2708 87.5312 11.3125C87.7917 10.3438 88.1823 9.52604 88.7031 8.85938C89.2344 8.18229 89.901 7.66667 90.7031 7.3125C91.5156 6.95833 92.4688 6.78125 93.5625 6.78125C94.7083 6.78125 95.6979 7.02604 96.5312 7.51562C97.375 7.99479 98.0312 8.69271 98.5 9.60938C98.9792 10.5156 99.2396 11.6146 99.2812 12.9062H96.6875C96.6458 12.0729 96.4948 11.3802 96.2344 10.8281C95.974 10.2656 95.6198 9.84896 95.1719 9.57812C94.724 9.29688 94.1875 9.15625 93.5625 9.15625C92.8333 9.15625 92.2292 9.28646 91.75 9.54688C91.2812 9.79688 90.9115 10.1615 90.6406 10.6406C90.3698 11.1198 90.1771 11.6927 90.0625 12.3594C89.9583 13.026 89.9062 13.7708 89.9062 14.5938V16.5C89.9062 17.3229 89.9583 18.0729 90.0625 18.75C90.1771 19.4167 90.3646 19.9896 90.625 20.4688C90.8958 20.9479 91.2708 21.3177 91.75 21.5781C92.2292 21.8281 92.8333 21.9531 93.5625 21.9531ZM105.266 0V24H102.5V0H105.266ZM113.844 7.09375L107.828 14.9844L104.109 19.2656L103.922 16.1875L106.484 12.6562L110.516 7.09375H113.844ZM111.312 24L106.562 15.9375L107.984 13.3594L114.531 24H111.312ZM123.688 16.3594V14.75C123.688 13.4375 123.854 12.2865 124.188 11.2969C124.521 10.2969 124.984 9.46354 125.578 8.79688C126.172 8.13021 126.865 7.63021 127.656 7.29688C128.448 6.95312 129.297 6.78125 130.203 6.78125C131.13 6.78125 131.99 6.95312 132.781 7.29688C133.573 7.63021 134.266 8.13021 134.859 8.79688C135.464 9.46354 135.932 10.2969 136.266 11.2969C136.599 12.2865 136.766 13.4375 136.766 14.75V16.3594C136.766 17.6719 136.599 18.8281 136.266 19.8281C135.932 20.8177 135.469 21.6458 134.875 22.3125C134.281 22.9792 133.589 23.4792 132.797 23.8125C132.005 24.1458 131.151 24.3125 130.234 24.3125C129.318 24.3125 128.464 24.1458 127.672 23.8125C126.88 23.4792 126.182 22.9792 125.578 22.3125C124.984 21.6458 124.521 20.8177 124.188 19.8281C123.854 18.8281 123.688 17.6719 123.688 16.3594ZM126.453 14.75V16.3594C126.453 17.2865 126.547 18.099 126.734 18.7969C126.922 19.4948 127.188 20.0781 127.531 20.5469C127.875 21.0156 128.276 21.3698 128.734 21.6094C129.193 21.8385 129.693 21.9531 130.234 21.9531C130.859 21.9531 131.406 21.8385 131.875 21.6094C132.354 21.3698 132.75 21.0156 133.062 20.5469C133.375 20.0781 133.609 19.4948 133.766 18.7969C133.922 18.099 134 17.2865 134 16.3594V14.75C134 13.8229 133.906 13.0156 133.719 12.3281C133.531 11.6302 133.266 11.0469 132.922 10.5781C132.578 10.099 132.172 9.74479 131.703 9.51562C131.245 9.27604 130.745 9.15625 130.203 9.15625C129.672 9.15625 129.177 9.27604 128.719 9.51562C128.26 9.74479 127.859 10.099 127.516 10.5781C127.182 11.0469 126.922 11.6302 126.734 12.3281C126.547 13.0156 126.453 13.8229 126.453 14.75ZM148.875 20.0938V7.09375H151.641V24H149.016L148.875 20.0938ZM149.391 16.5312L150.484 16.5C150.484 17.625 150.385 18.6667 150.188 19.625C150 20.5729 149.688 21.3958 149.25 22.0938C148.823 22.7917 148.255 23.3385 147.547 23.7344C146.839 24.1198 145.969 24.3125 144.938 24.3125C144.24 24.3125 143.604 24.1927 143.031 23.9531C142.469 23.7135 141.979 23.3438 141.562 22.8438C141.156 22.3438 140.839 21.6927 140.609 20.8906C140.391 20.0885 140.281 19.125 140.281 18V7.09375H143.031V18.0312C143.031 18.7917 143.099 19.4219 143.234 19.9219C143.37 20.4115 143.552 20.8021 143.781 21.0938C144.01 21.375 144.266 21.5729 144.547 21.6875C144.828 21.8021 145.115 21.8594 145.406 21.8594C146.385 21.8594 147.167 21.625 147.75 21.1562C148.333 20.6771 148.75 20.0365 149 19.2344C149.26 18.4219 149.391 17.5208 149.391 16.5312ZM161.969 7.09375V9.3125H154.078V7.09375H161.969ZM156.656 2.98438H159.422V19.8125C159.422 20.3854 159.49 20.8177 159.625 21.1094C159.771 21.401 159.953 21.5938 160.172 21.6875C160.391 21.7812 160.625 21.8281 160.875 21.8281C161.062 21.8281 161.271 21.8073 161.5 21.7656C161.729 21.7135 161.885 21.6719 161.969 21.6406L161.953 24C161.766 24.0729 161.516 24.1406 161.203 24.2031C160.891 24.276 160.495 24.3125 160.016 24.3125C159.422 24.3125 158.87 24.1719 158.359 23.8906C157.849 23.6094 157.438 23.1406 157.125 22.4844C156.812 21.8177 156.656 20.9219 156.656 19.7969V2.98438ZM41.8438 48.4531V62H39.0938V45.0938H41.6875L41.8438 48.4531ZM41.2812 52.9062L40 52.8594C39.9896 51.7031 40.1042 50.6354 40.3438 49.6562C40.5833 48.6667 40.9427 47.8073 41.4219 47.0781C41.9115 46.349 42.5208 45.7865 43.25 45.3906C43.9896 44.9844 44.849 44.7812 45.8281 44.7812C46.474 44.7812 47.0729 44.8958 47.625 45.125C48.1875 45.3438 48.6771 45.6927 49.0938 46.1719C49.5104 46.651 49.8333 47.2656 50.0625 48.0156C50.3021 48.7656 50.4219 49.6719 50.4219 50.7344V62H47.6562V50.875C47.6562 49.9896 47.5365 49.2812 47.2969 48.75C47.0677 48.2188 46.7396 47.8333 46.3125 47.5938C45.8854 47.3438 45.375 47.2188 44.7812 47.2188C44.1042 47.2188 43.5365 47.3698 43.0781 47.6719C42.6302 47.974 42.2708 48.3906 42 48.9219C41.7396 49.4531 41.5521 50.0625 41.4375 50.75C41.3333 51.4271 41.2812 52.1458 41.2812 52.9062ZM50.3906 51.3125L48.5469 51.9062C48.5365 50.9792 48.651 50.0885 48.8906 49.2344C49.1302 48.3802 49.4844 47.6198 49.9531 46.9531C50.4323 46.2865 51.026 45.7604 51.7344 45.375C52.4427 44.9792 53.2656 44.7812 54.2031 44.7812C54.974 44.7812 55.6562 44.901 56.25 45.1406C56.8438 45.3802 57.3438 45.75 57.75 46.25C58.1667 46.7396 58.4792 47.3698 58.6875 48.1406C58.8958 48.9115 59 49.8281 59 50.8906V62H56.2344V50.8594C56.2344 49.9115 56.1146 49.1771 55.875 48.6562C55.6458 48.125 55.3177 47.7552 54.8906 47.5469C54.4635 47.3281 53.9531 47.2188 53.3594 47.2188C52.8802 47.2188 52.4531 47.3281 52.0781 47.5469C51.7135 47.7656 51.4062 48.0677 51.1562 48.4531C50.9062 48.8281 50.7135 49.2604 50.5781 49.75C50.4531 50.2396 50.3906 50.7604 50.3906 51.3125ZM67.0938 60.25L70.8594 45.0938H73.7969L68.2188 64.6094C68.0833 65.026 67.901 65.474 67.6719 65.9531C67.4531 66.4427 67.1719 66.9062 66.8281 67.3438C66.4844 67.7812 66.0729 68.1354 65.5938 68.4062C65.1146 68.6875 64.5521 68.8281 63.9062 68.8281C63.7083 68.8281 63.4531 68.7969 63.1406 68.7344C62.8385 68.6719 62.6198 68.6198 62.4844 68.5781V66.2344C62.5469 66.2448 62.6458 66.2552 62.7812 66.2656C62.9167 66.2865 63.0156 66.2969 63.0781 66.2969C63.6198 66.2969 64.0781 66.2083 64.4531 66.0312C64.8385 65.8646 65.1667 65.5781 65.4375 65.1719C65.7083 64.776 65.9375 64.2292 66.125 63.5312L67.0938 60.25ZM64.6562 45.0938L68.0156 58.2188L68.7344 61.2656L66.7656 62.3281L61.6406 45.0938H64.6562ZM92.0625 57.6719C92.0625 57.2448 91.9583 56.8698 91.75 56.5469C91.5417 56.224 91.1979 55.9115 90.7188 55.6094C90.25 55.3073 89.6146 54.9844 88.8125 54.6406C88.0312 54.3177 87.3281 54 86.7031 53.6875C86.0885 53.3646 85.5677 53.0156 85.1406 52.6406C84.7135 52.2656 84.3854 51.8333 84.1562 51.3438C83.9375 50.8438 83.8281 50.2552 83.8281 49.5781C83.8281 48.901 83.9531 48.276 84.2031 47.7031C84.4635 47.1198 84.8281 46.6094 85.2969 46.1719C85.7656 45.7344 86.3281 45.3958 86.9844 45.1562C87.6406 44.9062 88.375 44.7812 89.1875 44.7812C90.3438 44.7812 91.3281 45.0052 92.1406 45.4531C92.9531 45.901 93.5729 46.5156 94 47.2969C94.4375 48.0677 94.6562 48.9375 94.6562 49.9062H91.9062C91.9062 49.4375 91.8021 48.9948 91.5938 48.5781C91.3854 48.1615 91.0781 47.8229 90.6719 47.5625C90.2656 47.2917 89.7708 47.1562 89.1875 47.1562C88.5729 47.1562 88.0729 47.2656 87.6875 47.4844C87.3021 47.7031 87.0208 47.9896 86.8438 48.3438C86.6771 48.6875 86.5938 49.0677 86.5938 49.4844C86.5938 49.7969 86.6354 50.0677 86.7188 50.2969C86.8125 50.5156 86.9688 50.724 87.1875 50.9219C87.4062 51.1094 87.7031 51.3073 88.0781 51.5156C88.4635 51.7135 88.9531 51.9427 89.5469 52.2031C90.6927 52.651 91.6562 53.1042 92.4375 53.5625C93.2188 54.0208 93.8125 54.5573 94.2188 55.1719C94.625 55.7865 94.8281 56.5469 94.8281 57.4531C94.8281 58.1927 94.6927 58.8646 94.4219 59.4688C94.1615 60.0625 93.7865 60.5729 93.2969 61C92.8073 61.4271 92.2188 61.7552 91.5312 61.9844C90.8542 62.2031 90.0938 62.3125 89.25 62.3125C87.9792 62.3125 86.901 62.0625 86.0156 61.5625C85.1406 61.0521 84.474 60.3906 84.0156 59.5781C83.5677 58.7552 83.3438 57.875 83.3438 56.9375H86.1094C86.1406 57.7292 86.3177 58.3438 86.6406 58.7812C86.974 59.2188 87.375 59.5208 87.8438 59.6875C88.3125 59.8542 88.7812 59.9375 89.25 59.9375C89.8646 59.9375 90.3802 59.849 90.7969 59.6719C91.2135 59.4844 91.526 59.2188 91.7344 58.875C91.9531 58.5312 92.0625 58.1302 92.0625 57.6719ZM104.625 45.0938V47.3125H96.7344V45.0938H104.625ZM99.3125 40.9844H102.078V57.8125C102.078 58.3854 102.146 58.8177 102.281 59.1094C102.427 59.401 102.609 59.5938 102.828 59.6875C103.047 59.7812 103.281 59.8281 103.531 59.8281C103.719 59.8281 103.927 59.8073 104.156 59.7656C104.385 59.7135 104.542 59.6719 104.625 59.6406L104.609 62C104.422 62.0729 104.172 62.1406 103.859 62.2031C103.547 62.276 103.151 62.3125 102.672 62.3125C102.078 62.3125 101.526 62.1719 101.016 61.8906C100.505 61.6094 100.094 61.1406 99.7812 60.4844C99.4688 59.8177 99.3125 58.9219 99.3125 57.7969V40.9844ZM116.469 58.0938V45.0938H119.234V62H116.609L116.469 58.0938ZM116.984 54.5312L118.078 54.5C118.078 55.625 117.979 56.6667 117.781 57.625C117.594 58.5729 117.281 59.3958 116.844 60.0938C116.417 60.7917 115.849 61.3385 115.141 61.7344C114.432 62.1198 113.562 62.3125 112.531 62.3125C111.833 62.3125 111.198 62.1927 110.625 61.9531C110.062 61.7135 109.573 61.3438 109.156 60.8438C108.75 60.3438 108.432 59.6927 108.203 58.8906C107.984 58.0885 107.875 57.125 107.875 56V45.0938H110.625V56.0312C110.625 56.7917 110.693 57.4219 110.828 57.9219C110.964 58.4115 111.146 58.8021 111.375 59.0938C111.604 59.375 111.859 59.5729 112.141 59.6875C112.422 59.8021 112.708 59.8594 113 59.8594C113.979 59.8594 114.76 59.625 115.344 59.1562C115.927 58.6771 116.344 58.0365 116.594 57.2344C116.854 56.4219 116.984 55.5208 116.984 54.5312ZM127.375 62H124.609V43.3125C124.609 42.0938 124.802 41.0677 125.188 40.2344C125.583 39.3906 126.141 38.7552 126.859 38.3281C127.589 37.8906 128.453 37.6719 129.453 37.6719C129.734 37.6719 130.016 37.6927 130.297 37.7344C130.589 37.776 130.865 37.8385 131.125 37.9219L131 40.2812C130.833 40.2292 130.63 40.1927 130.391 40.1719C130.161 40.151 129.943 40.1406 129.734 40.1406C129.234 40.1406 128.807 40.2656 128.453 40.5156C128.099 40.7552 127.828 41.1094 127.641 41.5781C127.464 42.0469 127.375 42.625 127.375 43.3125V62ZM130.25 45.0938V47.3125H122.406V45.0938H130.25ZM137.5 62H134.734V43.3125C134.734 42.0938 134.927 41.0677 135.312 40.2344C135.708 39.3906 136.266 38.7552 136.984 38.3281C137.714 37.8906 138.578 37.6719 139.578 37.6719C139.859 37.6719 140.141 37.6927 140.422 37.7344C140.714 37.776 140.99 37.8385 141.25 37.9219L141.125 40.2812C140.958 40.2292 140.755 40.1927 140.516 40.1719C140.286 40.151 140.068 40.1406 139.859 40.1406C139.359 40.1406 138.932 40.2656 138.578 40.5156C138.224 40.7552 137.953 41.1094 137.766 41.5781C137.589 42.0469 137.5 42.625 137.5 43.3125V62ZM140.375 45.0938V47.3125H132.531V45.0938H140.375ZM146.969 39.25L146.766 55.5781H144.281L144.062 39.25H146.969ZM144.016 60.5469C144.016 60.0781 144.146 59.6823 144.406 59.3594C144.677 59.0365 145.068 58.875 145.578 58.875C146.099 58.875 146.49 59.0365 146.75 59.3594C147.021 59.6823 147.156 60.0781 147.156 60.5469C147.156 60.9948 147.021 61.3802 146.75 61.7031C146.49 62.026 146.099 62.1875 145.578 62.1875C145.068 62.1875 144.677 62.026 144.406 61.7031C144.146 61.3802 144.016 60.9948 144.016 60.5469Z" fill="black"/>
<path d="M37 27.125H163.188V28.6875H37V27.125ZM37 65.125H149.438V66.6875H37V65.125Z" fill="black"/>
<path d="M94 72C72.711 127 30.133 141.865 3 104.703M3 104.703H22.2018M3 101.703V127" stroke="black" stroke-width="6"/>
</svg>
